# xmcd
#
# Track frame offsets:
#	150
#	9215
#	20167
#	34787
#	44367
#	59585
#	72512
#	82655
#	92712
#	103957
#	119375
#	131885
#	148402
#	162250
#	176635
#	188847
#	202442
#	215062
#	229015
#	241015
#	258937
#	272952
#	289647
#	298540
#
# Disc length: 4183 seconds
#
# Revision: 0
# Processed by: cddbd v1.5.2PL0 Copyright (c) Steve Scherf et al.
# Submitted via: EasyCDDAExtractor 10.2.0.1
#
DISCID=75105518
DTITLE=Albert Brumley - Legendary Gospel Favorites
DYEAR=1900
DGENRE=Gospel
TTITLE0=I'll Fly Away
TTITLE1=This World Is Not My Home
TTITLE2=If We Never Meet Again
TTITLE3=Turn Your Radio On
TTITLE4=I'll Meet You In The Morning
TTITLE5=Jesus Hold My Hand
TTITLE6=I'd Rather Be An Old Time Christian
TTITLE7=Camping In Canaan's Land
TTITLE8=He Set Me Free
TTITLE9=I've Found A Hiding Place
TTITLE10=I'm Bound For That City
TTITLE11=It's An Unfriendly World
TTITLE12=There's A Little Pine Cabin
TTITLE13=Did You Ever Go Sailing
TTITLE14=Rank Starangers To Me
TTITLE15=Old Village Church
TTITLE16=I'd Like To Go Back
TTITLE17=I Dreamed I met Mother And Daddy
TTITLE18=Flowers In The Wildwood
TTITLE19=Cabin In The Valley Of The Pines
TTITLE20=Nobody Answered Me
TTITLE21=Dreaming of A Little Cabin
TTITLE22=Her Mansions Is Higher Than Mine
TTITLE23=It's Twilight Time Again
EXTD=
EXTT0=
EXTT1=
EXTT2=
EXTT3=
EXTT4=
EXTT5=
EXTT6=
EXTT7=
EXTT8=
EXTT9=
EXTT10=
EXTT11=
EXTT12=
EXTT13=
EXTT14=
EXTT15=
EXTT16=
EXTT17=
EXTT18=
EXTT19=
EXTT20=
EXTT21=
EXTT22=
EXTT23=
PLAYORDER=
